<?xml version="1.0" encoding="us-ascii" standalone="no"?><svg xmlns="http://www.w3.org/2000/svg" xmlns:xlink="http://www.w3.org/1999/xlink" contentStyleType="text/css" height="967px" preserveAspectRatio="none" style="width:1551px;height:967px;background:#FFFFFF;" version="1.1" viewBox="0 0 1551 967" width="1551px" zoomAndPan="magnify"><defs/><g><!--class Pedido--><g id="elem_Pedido"><rect codeLine="2" fill="#F1F1F1" height="276.9219" id="Pedido" rx="2.5" ry="2.5" style="stroke:#181818;stroke-width:0.5;" width="279" x="492" y="256"/><ellipse cx="605.25" cy="272" fill="#ADD1B2" rx="11" ry="11" style="stroke:#181818;stroke-width:1.0;"/><path d="M604.1094,272.7969 L604.1094,275.2969 L608.4375,275.2969 L608.4375,274.375 Q608.4375,273.7656 608.6719,273.5 Q608.9219,273.2344 609.2969,273.2344 Q609.6719,273.2344 609.9063,273.5 Q610.1406,273.7656 610.1406,274.375 L610.1406,277 L602.1406,277 Q601.5156,277 601.25,276.7656 Q601,276.5313 601,276.1406 Q601,275.7656 601.2656,275.5313 Q601.5313,275.2969 602.1406,275.2969 L602.4063,275.2969 L602.4063,268.6406 L602.1406,268.6406 Q601.5156,268.6406 601.25,268.4063 Q601,268.1719 601,267.7813 Q601,267.4063 601.25,267.1719 Q601.5156,266.9375 602.1406,266.9375 L609.7656,266.9375 L609.7656,269.5313 Q609.7656,270.1406 609.5313,270.4063 Q609.3125,270.6563 608.9219,270.6563 Q608.5469,270.6563 608.3125,270.4063 Q608.0781,270.1406 608.0781,269.5313 L608.0781,268.6406 L604.1094,268.6406 L604.1094,271.0938 L605.5938,271.0938 Q605.5938,270.4375 605.7188,270.25 Q605.9844,269.8438 606.4531,269.8438 Q606.8281,269.8438 607.0625,270.1094 Q607.2969,270.3594 607.2969,270.9688 L607.2969,272.9375 Q607.2969,273.4844 607.1719,273.6719 Q606.9063,274.0625 606.4531,274.0625 Q605.9844,274.0625 605.7188,273.6563 Q605.5938,273.4688 605.5938,272.7969 L604.1094,272.7969 Z " fill="#000000"/><text fill="#000000" font-family="sans-serif" font-size="14" lengthAdjust="spacing" textLength="44" x="625.75" y="277.7285">Pedido</text><line style="stroke:#181818;stroke-width:0.5;" x1="493" x2="770" y1="288" y2="288"/><ellipse cx="503" cy="302.3047" fill="#000000" rx="3" ry="3" style="stroke:#000000;stroke-width:1.0;"/><text fill="#000000" font-family="sans-serif" font-size="14" lengthAdjust="spacing" textLength="193" x="512" y="306.5332">id: INTEGER(11) &#171;subrogada&#187;</text><line style="stroke:#181818;stroke-width:1.0;" x1="493" x2="770" y1="313.6094" y2="313.6094"/><ellipse cx="503" cy="327.9141" fill="#000000" rx="3" ry="3" style="stroke:#000000;stroke-width:1.0;"/><text fill="#000000" font-family="sans-serif" font-size="14" lengthAdjust="spacing" textLength="192" x="512" y="332.1426">cliente_id: INTEGER(11) &#171;FK&#187;</text><ellipse cx="503" cy="345.5234" fill="#000000" rx="3" ry="3" style="stroke:#000000;stroke-width:1.0;"/><text fill="#000000" font-family="sans-serif" font-size="14" lengthAdjust="spacing" textLength="224" x="512" y="349.752">restaurante_id: INTEGER(11) &#171;FK&#187;</text><ellipse cx="503" cy="363.1328" fill="#000000" rx="3" ry="3" style="stroke:#000000;stroke-width:1.0;"/><text fill="#000000" font-family="sans-serif" font-size="14" lengthAdjust="spacing" textLength="253" x="512" y="367.3613">medio_de_pago_id: INTEGER(11) &#171;FK&#187;</text><ellipse cx="503" cy="380.7422" fill="#000000" rx="3" ry="3" style="stroke:#000000;stroke-width:1.0;"/><text fill="#000000" font-family="sans-serif" font-size="14" lengthAdjust="spacing" textLength="208" x="512" y="384.9707">direccion_id: INTEGER(11) &#171;FK&#187;</text><ellipse cx="503" cy="398.3516" fill="#000000" rx="3" ry="3" style="stroke:#000000;stroke-width:1.0;"/><text fill="#000000" font-family="sans-serif" font-size="14" lengthAdjust="spacing" textLength="149" x="512" y="402.5801">fecha_hora: DATETIME</text><ellipse cx="503" cy="415.9609" fill="#000000" rx="3" ry="3" style="stroke:#000000;stroke-width:1.0;"/><text fill="#000000" font-family="sans-serif" font-size="14" lengthAdjust="spacing" textLength="102" x="512" y="420.1895">propina: FLOAT</text><ellipse cx="503" cy="433.5703" fill="#000000" rx="3" ry="3" style="stroke:#000000;stroke-width:1.0;"/><text fill="#000000" font-family="sans-serif" font-size="14" lengthAdjust="spacing" textLength="130" x="512" y="437.7988">costo_envio: FLOAT</text><ellipse cx="503" cy="451.1797" fill="#000000" rx="3" ry="3" style="stroke:#000000;stroke-width:1.0;"/><text fill="#000000" font-family="sans-serif" font-size="14" lengthAdjust="spacing" textLength="184" x="512" y="455.4082">porcentaje_comision: FLOAT</text><ellipse cx="503" cy="468.7891" fill="#000000" rx="3" ry="3" style="stroke:#000000;stroke-width:1.0;"/><text fill="#000000" font-family="sans-serif" font-size="14" lengthAdjust="spacing" textLength="127" x="512" y="473.0176">precio_final: FLOAT</text><ellipse cx="503" cy="486.3984" fill="#000000" rx="3" ry="3" style="stroke:#000000;stroke-width:1.0;"/><text fill="#000000" font-family="sans-serif" font-size="14" lengthAdjust="spacing" textLength="169" x="512" y="490.627">tiempo_transporte: FLOAT</text><ellipse cx="503" cy="504.0078" fill="#000000" rx="3" ry="3" style="stroke:#000000;stroke-width:1.0;"/><text fill="#000000" font-family="sans-serif" font-size="14" lengthAdjust="spacing" textLength="153" x="512" y="508.2363">tiempo_entrega: FLOAT</text><ellipse cx="503" cy="521.6172" fill="#000000" rx="3" ry="3" style="stroke:#000000;stroke-width:1.0;"/><text fill="#000000" font-family="sans-serif" font-size="14" lengthAdjust="spacing" textLength="151" x="512" y="525.8457">estado: VARCHAR(255)</text></g><!--class Producto_Pedido--><g id="elem_Producto_Pedido"><rect codeLine="19" fill="#F1F1F1" height="171.2656" id="Producto_Pedido" rx="2.5" ry="2.5" style="stroke:#181818;stroke-width:0.5;" width="233" x="895" y="16"/><ellipse cx="952.75" cy="32" fill="#ADD1B2" rx="11" ry="11" style="stroke:#181818;stroke-width:1.0;"/><path d="M951.6094,32.7969 L951.6094,35.2969 L955.9375,35.2969 L955.9375,34.375 Q955.9375,33.7656 956.1719,33.5 Q956.4219,33.2344 956.7969,33.2344 Q957.1719,33.2344 957.4063,33.5 Q957.6406,33.7656 957.6406,34.375 L957.6406,37 L949.6406,37 Q949.0156,37 948.75,36.7656 Q948.5,36.5313 948.5,36.1406 Q948.5,35.7656 948.7656,35.5313 Q949.0313,35.2969 949.6406,35.2969 L949.9063,35.2969 L949.9063,28.6406 L949.6406,28.6406 Q949.0156,28.6406 948.75,28.4063 Q948.5,28.1719 948.5,27.7813 Q948.5,27.4063 948.75,27.1719 Q949.0156,26.9375 949.6406,26.9375 L957.2656,26.9375 L957.2656,29.5313 Q957.2656,30.1406 957.0313,30.4063 Q956.8125,30.6563 956.4219,30.6563 Q956.0469,30.6563 955.8125,30.4063 Q955.5781,30.1406 955.5781,29.5313 L955.5781,28.6406 L951.6094,28.6406 L951.6094,31.0938 L953.0938,31.0938 Q953.0938,30.4375 953.2188,30.25 Q953.4844,29.8438 953.9531,29.8438 Q954.3281,29.8438 954.5625,30.1094 Q954.7969,30.3594 954.7969,30.9688 L954.7969,32.9375 Q954.7969,33.4844 954.6719,33.6719 Q954.4063,34.0625 953.9531,34.0625 Q953.4844,34.0625 953.2188,33.6563 Q953.0938,33.4688 953.0938,32.7969 L951.6094,32.7969 Z " fill="#000000"/><text fill="#000000" font-family="sans-serif" font-size="14" lengthAdjust="spacing" textLength="109" x="973.25" y="37.7285">Producto_Pedido</text><line style="stroke:#181818;stroke-width:0.5;" x1="896" x2="1127" y1="48" y2="48"/><ellipse cx="906" cy="62.3047" fill="#000000" rx="3" ry="3" style="stroke:#000000;stroke-width:1.0;"/><text fill="#000000" font-family="sans-serif" font-size="14" lengthAdjust="spacing" textLength="193" x="915" y="66.5332">id: INTEGER(11) &#171;subrogada&#187;</text><line style="stroke:#181818;stroke-width:1.0;" x1="896" x2="1127" y1="73.6094" y2="73.6094"/><ellipse cx="906" cy="87.9141" fill="#000000" rx="3" ry="3" style="stroke:#000000;stroke-width:1.0;"/><text fill="#000000" font-family="sans-serif" font-size="14" lengthAdjust="spacing" textLength="194" x="915" y="92.1426">pedido_id: INTEGER(11) &#171;FK&#187;</text><ellipse cx="906" cy="105.5234" fill="#000000" rx="3" ry="3" style="stroke:#000000;stroke-width:1.0;"/><text fill="#000000" font-family="sans-serif" font-size="14" lengthAdjust="spacing" textLength="207" x="915" y="109.752">producto_id: INTEGER(11) &#171;FK&#187;</text><ellipse cx="906" cy="123.1328" fill="#000000" rx="3" ry="3" style="stroke:#000000;stroke-width:1.0;"/><text fill="#000000" font-family="sans-serif" font-size="14" lengthAdjust="spacing" textLength="148" x="915" y="127.3613">cantidad: INTEGER(11)</text><ellipse cx="906" cy="140.7422" fill="#000000" rx="3" ry="3" style="stroke:#000000;stroke-width:1.0;"/><text fill="#000000" font-family="sans-serif" font-size="14" lengthAdjust="spacing" textLength="120" x="915" y="144.9707">observacion: TEXT</text><ellipse cx="906" cy="158.3516" fill="#000000" rx="3" ry="3" style="stroke:#000000;stroke-width:1.0;"/><text fill="#000000" font-family="sans-serif" font-size="14" lengthAdjust="spacing" textLength="148" x="915" y="162.5801">precio_compra: FLOAT</text><ellipse cx="906" cy="175.9609" fill="#000000" rx="3" ry="3" style="stroke:#000000;stroke-width:1.0;"/><text fill="#000000" font-family="sans-serif" font-size="14" lengthAdjust="spacing" textLength="180" x="915" y="180.1895">tiempo_preparacion: FLOAT</text></g><!--class MedioDePago--><g id="elem_MedioDePago"><rect codeLine="30" fill="#F1F1F1" height="100.8281" id="MedioDePago" rx="2.5" ry="2.5" style="stroke:#181818;stroke-width:0.5;" width="219" x="1054" y="628"/><ellipse cx="1114.75" cy="644" fill="#ADD1B2" rx="11" ry="11" style="stroke:#181818;stroke-width:1.0;"/><path d="M1113.6094,644.7969 L1113.6094,647.2969 L1117.9375,647.2969 L1117.9375,646.375 Q1117.9375,645.7656 1118.1719,645.5 Q1118.4219,645.2344 1118.7969,645.2344 Q1119.1719,645.2344 1119.4063,645.5 Q1119.6406,645.7656 1119.6406,646.375 L1119.6406,649 L1111.6406,649 Q1111.0156,649 1110.75,648.7656 Q1110.5,648.5313 1110.5,648.1406 Q1110.5,647.7656 1110.7656,647.5313 Q1111.0313,647.2969 1111.6406,647.2969 L1111.9063,647.2969 L1111.9063,640.6406 L1111.6406,640.6406 Q1111.0156,640.6406 1110.75,640.4063 Q1110.5,640.1719 1110.5,639.7813 Q1110.5,639.4063 1110.75,639.1719 Q1111.0156,638.9375 1111.6406,638.9375 L1119.2656,638.9375 L1119.2656,641.5313 Q1119.2656,642.1406 1119.0313,642.4063 Q1118.8125,642.6563 1118.4219,642.6563 Q1118.0469,642.6563 1117.8125,642.4063 Q1117.5781,642.1406 1117.5781,641.5313 L1117.5781,640.6406 L1113.6094,640.6406 L1113.6094,643.0938 L1115.0938,643.0938 Q1115.0938,642.4375 1115.2188,642.25 Q1115.4844,641.8438 1115.9531,641.8438 Q1116.3281,641.8438 1116.5625,642.1094 Q1116.7969,642.3594 1116.7969,642.9688 L1116.7969,644.9375 Q1116.7969,645.4844 1116.6719,645.6719 Q1116.4063,646.0625 1115.9531,646.0625 Q1115.4844,646.0625 1115.2188,645.6563 Q1115.0938,645.4688 1115.0938,644.7969 L1113.6094,644.7969 Z " fill="#000000"/><text fill="#000000" font-family="sans-serif" font-size="14" lengthAdjust="spacing" textLength="89" x="1135.25" y="649.7285">MedioDePago</text><line style="stroke:#181818;stroke-width:0.5;" x1="1055" x2="1272" y1="660" y2="660"/><ellipse cx="1065" cy="674.3047" fill="#000000" rx="3" ry="3" style="stroke:#000000;stroke-width:1.0;"/><text fill="#000000" font-family="sans-serif" font-size="14" lengthAdjust="spacing" textLength="193" x="1074" y="678.5332">id: INTEGER(11) &#171;subrogada&#187;</text><line style="stroke:#181818;stroke-width:1.0;" x1="1055" x2="1272" y1="685.6094" y2="685.6094"/><ellipse cx="1065" cy="699.9141" fill="#000000" rx="3" ry="3" style="stroke:#000000;stroke-width:1.0;"/><text fill="#000000" font-family="sans-serif" font-size="14" lengthAdjust="spacing" textLength="155" x="1074" y="704.1426">tipo: INTEGER(11) &#171;FK&#187;</text><ellipse cx="1065" cy="717.5234" fill="#000000" rx="3" ry="3" style="stroke:#000000;stroke-width:1.0;"/><text fill="#000000" font-family="sans-serif" font-size="14" lengthAdjust="spacing" textLength="139" x="1074" y="721.752">firma: VARCHAR(255)</text></g><!--class Tipo--><g id="elem_Tipo"><rect codeLine="37" fill="#F1F1F1" height="83.2188" id="Tipo" rx="2.5" ry="2.5" style="stroke:#181818;stroke-width:0.5;" width="219" x="1054" y="850.5"/><ellipse cx="1145.25" cy="866.5" fill="#ADD1B2" rx="11" ry="11" style="stroke:#181818;stroke-width:1.0;"/><path d="M1144.1094,867.2969 L1144.1094,869.7969 L1148.4375,869.7969 L1148.4375,868.875 Q1148.4375,868.2656 1148.6719,868 Q1148.9219,867.7344 1149.2969,867.7344 Q1149.6719,867.7344 1149.9063,868 Q1150.1406,868.2656 1150.1406,868.875 L1150.1406,871.5 L1142.1406,871.5 Q1141.5156,871.5 1141.25,871.2656 Q1141,871.0313 1141,870.6406 Q1141,870.2656 1141.2656,870.0313 Q1141.5313,869.7969 1142.1406,869.7969 L1142.4063,869.7969 L1142.4063,863.1406 L1142.1406,863.1406 Q1141.5156,863.1406 1141.25,862.9063 Q1141,862.6719 1141,862.2813 Q1141,861.9063 1141.25,861.6719 Q1141.5156,861.4375 1142.1406,861.4375 L1149.7656,861.4375 L1149.7656,864.0313 Q1149.7656,864.6406 1149.5313,864.9063 Q1149.3125,865.1563 1148.9219,865.1563 Q1148.5469,865.1563 1148.3125,864.9063 Q1148.0781,864.6406 1148.0781,864.0313 L1148.0781,863.1406 L1144.1094,863.1406 L1144.1094,865.5938 L1145.5938,865.5938 Q1145.5938,864.9375 1145.7188,864.75 Q1145.9844,864.3438 1146.4531,864.3438 Q1146.8281,864.3438 1147.0625,864.6094 Q1147.2969,864.8594 1147.2969,865.4688 L1147.2969,867.4375 Q1147.2969,867.9844 1147.1719,868.1719 Q1146.9063,868.5625 1146.4531,868.5625 Q1145.9844,868.5625 1145.7188,868.1563 Q1145.5938,867.9688 1145.5938,867.2969 L1144.1094,867.2969 Z " fill="#000000"/><text fill="#000000" font-family="sans-serif" font-size="14" lengthAdjust="spacing" textLength="28" x="1165.75" y="872.2285">Tipo</text><line style="stroke:#181818;stroke-width:0.5;" x1="1055" x2="1272" y1="882.5" y2="882.5"/><ellipse cx="1065" cy="896.8047" fill="#000000" rx="3" ry="3" style="stroke:#000000;stroke-width:1.0;"/><text fill="#000000" font-family="sans-serif" font-size="14" lengthAdjust="spacing" textLength="193" x="1074" y="901.0332">id: INTEGER(11) &#171;subrogada&#187;</text><line style="stroke:#181818;stroke-width:1.0;" x1="1055" x2="1272" y1="908.1094" y2="908.1094"/><ellipse cx="1065" cy="922.4141" fill="#000000" rx="3" ry="3" style="stroke:#000000;stroke-width:1.0;"/><text fill="#000000" font-family="sans-serif" font-size="14" lengthAdjust="spacing" textLength="156" x="1074" y="926.6426">nombre: VARCHAR(255)</text></g><!--class Direccion--><g id="elem_Direccion"><rect codeLine="43" fill="#F1F1F1" height="136.0469" id="Direccion" rx="2.5" ry="2.5" style="stroke:#181818;stroke-width:0.5;" width="219" x="496" y="824"/><ellipse cx="571.75" cy="840" fill="#ADD1B2" rx="11" ry="11" style="stroke:#181818;stroke-width:1.0;"/><path d="M570.6094,840.7969 L570.6094,843.2969 L574.9375,843.2969 L574.9375,842.375 Q574.9375,841.7656 575.1719,841.5 Q575.4219,841.2344 575.7969,841.2344 Q576.1719,841.2344 576.4063,841.5 Q576.6406,841.7656 576.6406,842.375 L576.6406,845 L568.6406,845 Q568.0156,845 567.75,844.7656 Q567.5,844.5313 567.5,844.1406 Q567.5,843.7656 567.7656,843.5313 Q568.0313,843.2969 568.6406,843.2969 L568.9063,843.2969 L568.9063,836.6406 L568.6406,836.6406 Q568.0156,836.6406 567.75,836.4063 Q567.5,836.1719 567.5,835.7813 Q567.5,835.4063 567.75,835.1719 Q568.0156,834.9375 568.6406,834.9375 L576.2656,834.9375 L576.2656,837.5313 Q576.2656,838.1406 576.0313,838.4063 Q575.8125,838.6563 575.4219,838.6563 Q575.0469,838.6563 574.8125,838.4063 Q574.5781,838.1406 574.5781,837.5313 L574.5781,836.6406 L570.6094,836.6406 L570.6094,839.0938 L572.0938,839.0938 Q572.0938,838.4375 572.2188,838.25 Q572.4844,837.8438 572.9531,837.8438 Q573.3281,837.8438 573.5625,838.1094 Q573.7969,838.3594 573.7969,838.9688 L573.7969,840.9375 Q573.7969,841.4844 573.6719,841.6719 Q573.4063,842.0625 572.9531,842.0625 Q572.4844,842.0625 572.2188,841.6563 Q572.0938,841.4688 572.0938,840.7969 L570.6094,840.7969 Z " fill="#000000"/><text fill="#000000" font-family="sans-serif" font-size="14" lengthAdjust="spacing" textLength="59" x="592.25" y="845.7285">Direccion</text><line style="stroke:#181818;stroke-width:0.5;" x1="497" x2="714" y1="856" y2="856"/><ellipse cx="507" cy="870.3047" fill="#000000" rx="3" ry="3" style="stroke:#000000;stroke-width:1.0;"/><text fill="#000000" font-family="sans-serif" font-size="14" lengthAdjust="spacing" textLength="193" x="516" y="874.5332">id: INTEGER(11) &#171;subrogada&#187;</text><line style="stroke:#181818;stroke-width:1.0;" x1="497" x2="714" y1="881.6094" y2="881.6094"/><ellipse cx="507" cy="895.9141" fill="#000000" rx="3" ry="3" style="stroke:#000000;stroke-width:1.0;"/><text fill="#000000" font-family="sans-serif" font-size="14" lengthAdjust="spacing" textLength="137" x="516" y="900.1426">calle: VARCHAR(255)</text><ellipse cx="507" cy="913.5234" fill="#000000" rx="3" ry="3" style="stroke:#000000;stroke-width:1.0;"/><text fill="#000000" font-family="sans-serif" font-size="14" lengthAdjust="spacing" textLength="138" x="516" y="917.752">altura: INTEGER(255)</text><ellipse cx="507" cy="931.1328" fill="#000000" rx="3" ry="3" style="stroke:#000000;stroke-width:1.0;"/><text fill="#000000" font-family="sans-serif" font-size="14" lengthAdjust="spacing" textLength="128" x="516" y="935.3613">piso: INTEGER(255)</text><ellipse cx="507" cy="948.7422" fill="#000000" rx="3" ry="3" style="stroke:#000000;stroke-width:1.0;"/><text fill="#000000" font-family="sans-serif" font-size="14" lengthAdjust="spacing" textLength="182" x="516" y="952.9707">codigo_postal: INTEGER(11)</text></g><!--class Cliente--><g id="elem_Cliente"><rect codeLine="52" fill="#F1F1F1" height="171.2656" id="Cliente" rx="2.5" ry="2.5" style="stroke:#181818;stroke-width:0.5;" width="360" x="658.5" y="593"/><ellipse cx="812.25" cy="609" fill="#ADD1B2" rx="11" ry="11" style="stroke:#181818;stroke-width:1.0;"/><path d="M811.1094,609.7969 L811.1094,612.2969 L815.4375,612.2969 L815.4375,611.375 Q815.4375,610.7656 815.6719,610.5 Q815.9219,610.2344 816.2969,610.2344 Q816.6719,610.2344 816.9063,610.5 Q817.1406,610.7656 817.1406,611.375 L817.1406,614 L809.1406,614 Q808.5156,614 808.25,613.7656 Q808,613.5313 808,613.1406 Q808,612.7656 808.2656,612.5313 Q808.5313,612.2969 809.1406,612.2969 L809.4063,612.2969 L809.4063,605.6406 L809.1406,605.6406 Q808.5156,605.6406 808.25,605.4063 Q808,605.1719 808,604.7813 Q808,604.4063 808.25,604.1719 Q808.5156,603.9375 809.1406,603.9375 L816.7656,603.9375 L816.7656,606.5313 Q816.7656,607.1406 816.5313,607.4063 Q816.3125,607.6563 815.9219,607.6563 Q815.5469,607.6563 815.3125,607.4063 Q815.0781,607.1406 815.0781,606.5313 L815.0781,605.6406 L811.1094,605.6406 L811.1094,608.0938 L812.5938,608.0938 Q812.5938,607.4375 812.7188,607.25 Q812.9844,606.8438 813.4531,606.8438 Q813.8281,606.8438 814.0625,607.1094 Q814.2969,607.3594 814.2969,607.9688 L814.2969,609.9375 Q814.2969,610.4844 814.1719,610.6719 Q813.9063,611.0625 813.4531,611.0625 Q812.9844,611.0625 812.7188,610.6563 Q812.5938,610.4688 812.5938,609.7969 L811.1094,609.7969 Z " fill="#000000"/><text fill="#000000" font-family="sans-serif" font-size="14" lengthAdjust="spacing" textLength="44" x="832.75" y="614.7285">Cliente</text><line style="stroke:#181818;stroke-width:0.5;" x1="659.5" x2="1017.5" y1="625" y2="625"/><ellipse cx="669.5" cy="639.3047" fill="#000000" rx="3" ry="3" style="stroke:#000000;stroke-width:1.0;"/><text fill="#000000" font-family="sans-serif" font-size="14" lengthAdjust="spacing" textLength="193" x="678.5" y="643.5332">id: INTEGER(11) &#171;subrogada&#187;</text><line style="stroke:#181818;stroke-width:1.0;" x1="659.5" x2="1017.5" y1="650.6094" y2="650.6094"/><ellipse cx="669.5" cy="664.9141" fill="#000000" rx="3" ry="3" style="stroke:#000000;stroke-width:1.0;"/><text fill="#000000" font-family="sans-serif" font-size="14" lengthAdjust="spacing" textLength="334" x="678.5" y="669.1426">medio_de_pago_cliente_default: INTEGER(11) &#171;FK&#187;</text><ellipse cx="669.5" cy="682.5234" fill="#000000" rx="3" ry="3" style="stroke:#000000;stroke-width:1.0;"/><text fill="#000000" font-family="sans-serif" font-size="14" lengthAdjust="spacing" textLength="208" x="678.5" y="686.752">direccion_id: INTEGER(11) &#171;FK&#187;</text><ellipse cx="669.5" cy="700.1328" fill="#000000" rx="3" ry="3" style="stroke:#000000;stroke-width:1.0;"/><text fill="#000000" font-family="sans-serif" font-size="14" lengthAdjust="spacing" textLength="209" x="678.5" y="704.3613">tipo_documento: VARCHAR(255)</text><ellipse cx="669.5" cy="717.7422" fill="#000000" rx="3" ry="3" style="stroke:#000000;stroke-width:1.0;"/><text fill="#000000" font-family="sans-serif" font-size="14" lengthAdjust="spacing" textLength="234" x="678.5" y="721.9707">numero_documento: VARCHAR(255)</text><ellipse cx="669.5" cy="735.3516" fill="#000000" rx="3" ry="3" style="stroke:#000000;stroke-width:1.0;"/><text fill="#000000" font-family="sans-serif" font-size="14" lengthAdjust="spacing" textLength="153" x="678.5" y="739.5801">propina_default: FLOAT</text><ellipse cx="669.5" cy="752.9609" fill="#000000" rx="3" ry="3" style="stroke:#000000;stroke-width:1.0;"/><text fill="#000000" font-family="sans-serif" font-size="14" lengthAdjust="spacing" textLength="156" x="678.5" y="757.1895">nombre: VARCHAR(255)</text></g><!--class MedioDePago_Cliente--><g id="elem_MedioDePago_Cliente"><rect codeLine="63" fill="#F1F1F1" height="100.8281" id="MedioDePago_Cliente" rx="2.5" ry="2.5" style="stroke:#181818;stroke-width:0.5;" width="279" x="908" y="344"/><ellipse cx="972.75" cy="360" fill="#ADD1B2" rx="11" ry="11" style="stroke:#181818;stroke-width:1.0;"/><path d="M971.6094,360.7969 L971.6094,363.2969 L975.9375,363.2969 L975.9375,362.375 Q975.9375,361.7656 976.1719,361.5 Q976.4219,361.2344 976.7969,361.2344 Q977.1719,361.2344 977.4063,361.5 Q977.6406,361.7656 977.6406,362.375 L977.6406,365 L969.6406,365 Q969.0156,365 968.75,364.7656 Q968.5,364.5313 968.5,364.1406 Q968.5,363.7656 968.7656,363.5313 Q969.0313,363.2969 969.6406,363.2969 L969.9063,363.2969 L969.9063,356.6406 L969.6406,356.6406 Q969.0156,356.6406 968.75,356.4063 Q968.5,356.1719 968.5,355.7813 Q968.5,355.4063 968.75,355.1719 Q969.0156,354.9375 969.6406,354.9375 L977.2656,354.9375 L977.2656,357.5313 Q977.2656,358.1406 977.0313,358.4063 Q976.8125,358.6563 976.4219,358.6563 Q976.0469,358.6563 975.8125,358.4063 Q975.5781,358.1406 975.5781,357.5313 L975.5781,356.6406 L971.6094,356.6406 L971.6094,359.0938 L973.0938,359.0938 Q973.0938,358.4375 973.2188,358.25 Q973.4844,357.8438 973.9531,357.8438 Q974.3281,357.8438 974.5625,358.1094 Q974.7969,358.3594 974.7969,358.9688 L974.7969,360.9375 Q974.7969,361.4844 974.6719,361.6719 Q974.4063,362.0625 973.9531,362.0625 Q973.4844,362.0625 973.2188,361.6563 Q973.0938,361.4688 973.0938,360.7969 L971.6094,360.7969 Z " fill="#000000"/><text fill="#000000" font-family="sans-serif" font-size="14" lengthAdjust="spacing" textLength="141" x="993.25" y="365.7285">MedioDePago_Cliente</text><line style="stroke:#181818;stroke-width:0.5;" x1="909" x2="1186" y1="376" y2="376"/><ellipse cx="919" cy="390.3047" fill="#000000" rx="3" ry="3" style="stroke:#000000;stroke-width:1.0;"/><text fill="#000000" font-family="sans-serif" font-size="14" lengthAdjust="spacing" textLength="193" x="928" y="394.5332">id: INTEGER(11) &#171;subrogada&#187;</text><line style="stroke:#181818;stroke-width:1.0;" x1="909" x2="1186" y1="401.6094" y2="401.6094"/><ellipse cx="919" cy="415.9141" fill="#000000" rx="3" ry="3" style="stroke:#000000;stroke-width:1.0;"/><text fill="#000000" font-family="sans-serif" font-size="14" lengthAdjust="spacing" textLength="253" x="928" y="420.1426">medio_de_pago_id: INTEGER(11) &#171;FK&#187;</text><ellipse cx="919" cy="433.5234" fill="#000000" rx="3" ry="3" style="stroke:#000000;stroke-width:1.0;"/><text fill="#000000" font-family="sans-serif" font-size="14" lengthAdjust="spacing" textLength="192" x="928" y="437.752">cliente_id: INTEGER(11) &#171;FK&#187;</text></g><!--class Producto--><g id="elem_Producto"><rect codeLine="71" fill="#F1F1F1" height="188.875" id="Producto" rx="2.5" ry="2.5" style="stroke:#181818;stroke-width:0.5;" width="236" x="1273.5" y="300"/><ellipse cx="1358.75" cy="316" fill="#ADD1B2" rx="11" ry="11" style="stroke:#181818;stroke-width:1.0;"/><path d="M1357.6094,316.7969 L1357.6094,319.2969 L1361.9375,319.2969 L1361.9375,318.375 Q1361.9375,317.7656 1362.1719,317.5 Q1362.4219,317.2344 1362.7969,317.2344 Q1363.1719,317.2344 1363.4063,317.5 Q1363.6406,317.7656 1363.6406,318.375 L1363.6406,321 L1355.6406,321 Q1355.0156,321 1354.75,320.7656 Q1354.5,320.5313 1354.5,320.1406 Q1354.5,319.7656 1354.7656,319.5313 Q1355.0313,319.2969 1355.6406,319.2969 L1355.9063,319.2969 L1355.9063,312.6406 L1355.6406,312.6406 Q1355.0156,312.6406 1354.75,312.4063 Q1354.5,312.1719 1354.5,311.7813 Q1354.5,311.4063 1354.75,311.1719 Q1355.0156,310.9375 1355.6406,310.9375 L1363.2656,310.9375 L1363.2656,313.5313 Q1363.2656,314.1406 1363.0313,314.4063 Q1362.8125,314.6563 1362.4219,314.6563 Q1362.0469,314.6563 1361.8125,314.4063 Q1361.5781,314.1406 1361.5781,313.5313 L1361.5781,312.6406 L1357.6094,312.6406 L1357.6094,315.0938 L1359.0938,315.0938 Q1359.0938,314.4375 1359.2188,314.25 Q1359.4844,313.8438 1359.9531,313.8438 Q1360.3281,313.8438 1360.5625,314.1094 Q1360.7969,314.3594 1360.7969,314.9688 L1360.7969,316.9375 Q1360.7969,317.4844 1360.6719,317.6719 Q1360.4063,318.0625 1359.9531,318.0625 Q1359.4844,318.0625 1359.2188,317.6563 Q1359.0938,317.4688 1359.0938,316.7969 L1357.6094,316.7969 Z " fill="#000000"/><text fill="#000000" font-family="sans-serif" font-size="14" lengthAdjust="spacing" textLength="57" x="1379.25" y="321.7285">Producto</text><line style="stroke:#181818;stroke-width:0.5;" x1="1274.5" x2="1508.5" y1="332" y2="332"/><ellipse cx="1284.5" cy="346.3047" fill="#000000" rx="3" ry="3" style="stroke:#000000;stroke-width:1.0;"/><text fill="#000000" font-family="sans-serif" font-size="14" lengthAdjust="spacing" textLength="193" x="1293.5" y="350.5332">id: INTEGER(11) &#171;subrogada&#187;</text><line style="stroke:#181818;stroke-width:1.0;" x1="1274.5" x2="1508.5" y1="357.6094" y2="357.6094"/><ellipse cx="1284.5" cy="371.9141" fill="#000000" rx="3" ry="3" style="stroke:#000000;stroke-width:1.0;"/><text fill="#000000" font-family="sans-serif" font-size="14" lengthAdjust="spacing" textLength="210" x="1293.5" y="376.1426">categoria_id: INTEGER(11) &#171;FK&#187;</text><ellipse cx="1284.5" cy="389.5234" fill="#000000" rx="3" ry="3" style="stroke:#000000;stroke-width:1.0;"/><text fill="#000000" font-family="sans-serif" font-size="14" lengthAdjust="spacing" textLength="207" x="1293.5" y="393.752">producto_id: INTEGER(11) &#171;FK&#187;</text><ellipse cx="1284.5" cy="407.1328" fill="#000000" rx="3" ry="3" style="stroke:#000000;stroke-width:1.0;"/><text fill="#000000" font-family="sans-serif" font-size="14" lengthAdjust="spacing" textLength="156" x="1293.5" y="411.3613">nombre: VARCHAR(255)</text><ellipse cx="1284.5" cy="424.7422" fill="#000000" rx="3" ry="3" style="stroke:#000000;stroke-width:1.0;"/><text fill="#000000" font-family="sans-serif" font-size="14" lengthAdjust="spacing" textLength="93" x="1293.5" y="428.9707">precio: FLOAT</text><ellipse cx="1284.5" cy="442.3516" fill="#000000" rx="3" ry="3" style="stroke:#000000;stroke-width:1.0;"/><text fill="#000000" font-family="sans-serif" font-size="14" lengthAdjust="spacing" textLength="190" x="1293.5" y="446.5801">path_imagen: VARCHAR(255)</text><ellipse cx="1284.5" cy="459.9609" fill="#000000" rx="3" ry="3" style="stroke:#000000;stroke-width:1.0;"/><text fill="#000000" font-family="sans-serif" font-size="14" lengthAdjust="spacing" textLength="115" x="1293.5" y="464.1895">descripcion: TEXT</text><ellipse cx="1284.5" cy="477.5703" fill="#000000" rx="3" ry="3" style="stroke:#000000;stroke-width:1.0;"/><text fill="#000000" font-family="sans-serif" font-size="14" lengthAdjust="spacing" textLength="180" x="1293.5" y="481.7988">tiempo_preparacion: FLOAT</text></g><!--class Categoria--><g id="elem_Categoria"><rect codeLine="83" fill="#F1F1F1" height="83.2188" id="Categoria" rx="2.5" ry="2.5" style="stroke:#181818;stroke-width:0.5;" width="219" x="1308" y="637"/><ellipse cx="1382.25" cy="653" fill="#ADD1B2" rx="11" ry="11" style="stroke:#181818;stroke-width:1.0;"/><path d="M1381.1094,653.7969 L1381.1094,656.2969 L1385.4375,656.2969 L1385.4375,655.375 Q1385.4375,654.7656 1385.6719,654.5 Q1385.9219,654.2344 1386.2969,654.2344 Q1386.6719,654.2344 1386.9063,654.5 Q1387.1406,654.7656 1387.1406,655.375 L1387.1406,658 L1379.1406,658 Q1378.5156,658 1378.25,657.7656 Q1378,657.5313 1378,657.1406 Q1378,656.7656 1378.2656,656.5313 Q1378.5313,656.2969 1379.1406,656.2969 L1379.4063,656.2969 L1379.4063,649.6406 L1379.1406,649.6406 Q1378.5156,649.6406 1378.25,649.4063 Q1378,649.1719 1378,648.7813 Q1378,648.4063 1378.25,648.1719 Q1378.5156,647.9375 1379.1406,647.9375 L1386.7656,647.9375 L1386.7656,650.5313 Q1386.7656,651.1406 1386.5313,651.4063 Q1386.3125,651.6563 1385.9219,651.6563 Q1385.5469,651.6563 1385.3125,651.4063 Q1385.0781,651.1406 1385.0781,650.5313 L1385.0781,649.6406 L1381.1094,649.6406 L1381.1094,652.0938 L1382.5938,652.0938 Q1382.5938,651.4375 1382.7188,651.25 Q1382.9844,650.8438 1383.4531,650.8438 Q1383.8281,650.8438 1384.0625,651.1094 Q1384.2969,651.3594 1384.2969,651.9688 L1384.2969,653.9375 Q1384.2969,654.4844 1384.1719,654.6719 Q1383.9063,655.0625 1383.4531,655.0625 Q1382.9844,655.0625 1382.7188,654.6563 Q1382.5938,654.4688 1382.5938,653.7969 L1381.1094,653.7969 Z " fill="#000000"/><text fill="#000000" font-family="sans-serif" font-size="14" lengthAdjust="spacing" textLength="62" x="1402.75" y="658.7285">Categoria</text><line style="stroke:#181818;stroke-width:0.5;" x1="1309" x2="1526" y1="669" y2="669"/><ellipse cx="1319" cy="683.3047" fill="#000000" rx="3" ry="3" style="stroke:#000000;stroke-width:1.0;"/><text fill="#000000" font-family="sans-serif" font-size="14" lengthAdjust="spacing" textLength="193" x="1328" y="687.5332">id: INTEGER(11) &#171;subrogada&#187;</text><line style="stroke:#181818;stroke-width:1.0;" x1="1309" x2="1526" y1="694.6094" y2="694.6094"/><ellipse cx="1319" cy="708.9141" fill="#000000" rx="3" ry="3" style="stroke:#000000;stroke-width:1.0;"/><text fill="#000000" font-family="sans-serif" font-size="14" lengthAdjust="spacing" textLength="122" x="1328" y="713.1426">nombre: VARCHAR</text></g><!--class Restaurante--><g id="elem_Restaurante"><rect codeLine="89" fill="#F1F1F1" height="100.8281" id="Restaurante" rx="2.5" ry="2.5" style="stroke:#181818;stroke-width:0.5;" width="219" x="333" y="628"/><ellipse cx="399.25" cy="644" fill="#ADD1B2" rx="11" ry="11" style="stroke:#181818;stroke-width:1.0;"/><path d="M398.1094,644.7969 L398.1094,647.2969 L402.4375,647.2969 L402.4375,646.375 Q402.4375,645.7656 402.6719,645.5 Q402.9219,645.2344 403.2969,645.2344 Q403.6719,645.2344 403.9063,645.5 Q404.1406,645.7656 404.1406,646.375 L404.1406,649 L396.1406,649 Q395.5156,649 395.25,648.7656 Q395,648.5313 395,648.1406 Q395,647.7656 395.2656,647.5313 Q395.5313,647.2969 396.1406,647.2969 L396.4063,647.2969 L396.4063,640.6406 L396.1406,640.6406 Q395.5156,640.6406 395.25,640.4063 Q395,640.1719 395,639.7813 Q395,639.4063 395.25,639.1719 Q395.5156,638.9375 396.1406,638.9375 L403.7656,638.9375 L403.7656,641.5313 Q403.7656,642.1406 403.5313,642.4063 Q403.3125,642.6563 402.9219,642.6563 Q402.5469,642.6563 402.3125,642.4063 Q402.0781,642.1406 402.0781,641.5313 L402.0781,640.6406 L398.1094,640.6406 L398.1094,643.0938 L399.5938,643.0938 Q399.5938,642.4375 399.7188,642.25 Q399.9844,641.8438 400.4531,641.8438 Q400.8281,641.8438 401.0625,642.1094 Q401.2969,642.3594 401.2969,642.9688 L401.2969,644.9375 Q401.2969,645.4844 401.1719,645.6719 Q400.9063,646.0625 400.4531,646.0625 Q399.9844,646.0625 399.7188,645.6563 Q399.5938,645.4688 399.5938,644.7969 L398.1094,644.7969 Z " fill="#000000"/><text fill="#000000" font-family="sans-serif" font-size="14" lengthAdjust="spacing" textLength="78" x="419.75" y="649.7285">Restaurante</text><line style="stroke:#181818;stroke-width:0.5;" x1="334" x2="551" y1="660" y2="660"/><ellipse cx="344" cy="674.3047" fill="#000000" rx="3" ry="3" style="stroke:#000000;stroke-width:1.0;"/><text fill="#000000" font-family="sans-serif" font-size="14" lengthAdjust="spacing" textLength="193" x="353" y="678.5332">id: INTEGER(11) &#171;subrogada&#187;</text><line style="stroke:#181818;stroke-width:1.0;" x1="334" x2="551" y1="685.6094" y2="685.6094"/><ellipse cx="344" cy="699.9141" fill="#000000" rx="3" ry="3" style="stroke:#000000;stroke-width:1.0;"/><text fill="#000000" font-family="sans-serif" font-size="14" lengthAdjust="spacing" textLength="181" x="353" y="704.1426">zona_id: INTEGER(11) &#171;FK&#187;</text><ellipse cx="344" cy="717.5234" fill="#000000" rx="3" ry="3" style="stroke:#000000;stroke-width:1.0;"/><text fill="#000000" font-family="sans-serif" font-size="14" lengthAdjust="spacing" textLength="156" x="353" y="721.752">nombre: VARCHAR(255)</text></g><!--class Entrega--><g id="elem_Entrega"><rect codeLine="96" fill="#F1F1F1" height="188.875" id="Entrega" rx="2.5" ry="2.5" style="stroke:#181818;stroke-width:0.5;" width="248" x="155.5" y="7"/><ellipse cx="250.25" cy="23" fill="#ADD1B2" rx="11" ry="11" style="stroke:#181818;stroke-width:1.0;"/><path d="M249.1094,23.7969 L249.1094,26.2969 L253.4375,26.2969 L253.4375,25.375 Q253.4375,24.7656 253.6719,24.5 Q253.9219,24.2344 254.2969,24.2344 Q254.6719,24.2344 254.9063,24.5 Q255.1406,24.7656 255.1406,25.375 L255.1406,28 L247.1406,28 Q246.5156,28 246.25,27.7656 Q246,27.5313 246,27.1406 Q246,26.7656 246.2656,26.5313 Q246.5313,26.2969 247.1406,26.2969 L247.4063,26.2969 L247.4063,19.6406 L247.1406,19.6406 Q246.5156,19.6406 246.25,19.4063 Q246,19.1719 246,18.7813 Q246,18.4063 246.25,18.1719 Q246.5156,17.9375 247.1406,17.9375 L254.7656,17.9375 L254.7656,20.5313 Q254.7656,21.1406 254.5313,21.4063 Q254.3125,21.6563 253.9219,21.6563 Q253.5469,21.6563 253.3125,21.4063 Q253.0781,21.1406 253.0781,20.5313 L253.0781,19.6406 L249.1094,19.6406 L249.1094,22.0938 L250.5938,22.0938 Q250.5938,21.4375 250.7188,21.25 Q250.9844,20.8438 251.4531,20.8438 Q251.8281,20.8438 252.0625,21.1094 Q252.2969,21.3594 252.2969,21.9688 L252.2969,23.9375 Q252.2969,24.4844 252.1719,24.6719 Q251.9063,25.0625 251.4531,25.0625 Q250.9844,25.0625 250.7188,24.6563 Q250.5938,24.4688 250.5938,23.7969 L249.1094,23.7969 Z " fill="#000000"/><text fill="#000000" font-family="sans-serif" font-size="14" lengthAdjust="spacing" textLength="50" x="270.75" y="28.7285">Entrega</text><line style="stroke:#181818;stroke-width:0.5;" x1="156.5" x2="402.5" y1="39" y2="39"/><ellipse cx="166.5" cy="53.3047" fill="#000000" rx="3" ry="3" style="stroke:#000000;stroke-width:1.0;"/><text fill="#000000" font-family="sans-serif" font-size="14" lengthAdjust="spacing" textLength="193" x="175.5" y="57.5332">id: INTEGER(11) &#171;subrogada&#187;</text><line style="stroke:#181818;stroke-width:1.0;" x1="156.5" x2="402.5" y1="64.6094" y2="64.6094"/><ellipse cx="166.5" cy="78.9141" fill="#000000" rx="3" ry="3" style="stroke:#000000;stroke-width:1.0;"/><text fill="#000000" font-family="sans-serif" font-size="14" lengthAdjust="spacing" textLength="213" x="175.5" y="83.1426">repartidor_id: INTEGER(11) &#171;FK&#187;</text><ellipse cx="166.5" cy="96.5234" fill="#000000" rx="3" ry="3" style="stroke:#000000;stroke-width:1.0;"/><text fill="#000000" font-family="sans-serif" font-size="14" lengthAdjust="spacing" textLength="194" x="175.5" y="100.752">pedido_id: INTEGER(11) &#171;FK&#187;</text><ellipse cx="166.5" cy="114.1328" fill="#000000" rx="3" ry="3" style="stroke:#000000;stroke-width:1.0;"/><text fill="#000000" font-family="sans-serif" font-size="14" lengthAdjust="spacing" textLength="208" x="175.5" y="118.3613">direccion_id: INTEGER(11) &#171;FK&#187;</text><ellipse cx="166.5" cy="131.7422" fill="#000000" rx="3" ry="3" style="stroke:#000000;stroke-width:1.0;"/><text fill="#000000" font-family="sans-serif" font-size="14" lengthAdjust="spacing" textLength="216" x="175.5" y="135.9707">fecha_hora_aceptada: DATETIME</text><ellipse cx="166.5" cy="149.3516" fill="#000000" rx="3" ry="3" style="stroke:#000000;stroke-width:1.0;"/><text fill="#000000" font-family="sans-serif" font-size="14" lengthAdjust="spacing" textLength="212" x="175.5" y="153.5801">fecha_hora_recogida: DATETIME</text><ellipse cx="166.5" cy="166.9609" fill="#000000" rx="3" ry="3" style="stroke:#000000;stroke-width:1.0;"/><text fill="#000000" font-family="sans-serif" font-size="14" lengthAdjust="spacing" textLength="222" x="175.5" y="171.1895">fecha_hora_entregada: DATETIME</text><ellipse cx="166.5" cy="184.5703" fill="#000000" rx="3" ry="3" style="stroke:#000000;stroke-width:1.0;"/><text fill="#000000" font-family="sans-serif" font-size="14" lengthAdjust="spacing" textLength="121" x="175.5" y="188.7988">conformidad: TEXT</text></g><!--class Repartidor--><g id="elem_Repartidor"><rect codeLine="108" fill="#F1F1F1" height="118.4375" id="Repartidor" rx="2.5" ry="2.5" style="stroke:#181818;stroke-width:0.5;" width="219" x="7" y="335.5"/><ellipse cx="78.75" cy="351.5" fill="#ADD1B2" rx="11" ry="11" style="stroke:#181818;stroke-width:1.0;"/><path d="M77.6094,352.2969 L77.6094,354.7969 L81.9375,354.7969 L81.9375,353.875 Q81.9375,353.2656 82.1719,353 Q82.4219,352.7344 82.7969,352.7344 Q83.1719,352.7344 83.4063,353 Q83.6406,353.2656 83.6406,353.875 L83.6406,356.5 L75.6406,356.5 Q75.0156,356.5 74.75,356.2656 Q74.5,356.0313 74.5,355.6406 Q74.5,355.2656 74.7656,355.0313 Q75.0313,354.7969 75.6406,354.7969 L75.9063,354.7969 L75.9063,348.1406 L75.6406,348.1406 Q75.0156,348.1406 74.75,347.9063 Q74.5,347.6719 74.5,347.2813 Q74.5,346.9063 74.75,346.6719 Q75.0156,346.4375 75.6406,346.4375 L83.2656,346.4375 L83.2656,349.0313 Q83.2656,349.6406 83.0313,349.9063 Q82.8125,350.1563 82.4219,350.1563 Q82.0469,350.1563 81.8125,349.9063 Q81.5781,349.6406 81.5781,349.0313 L81.5781,348.1406 L77.6094,348.1406 L77.6094,350.5938 L79.0938,350.5938 Q79.0938,349.9375 79.2188,349.75 Q79.4844,349.3438 79.9531,349.3438 Q80.3281,349.3438 80.5625,349.6094 Q80.7969,349.8594 80.7969,350.4688 L80.7969,352.4375 Q80.7969,352.9844 80.6719,353.1719 Q80.4063,353.5625 79.9531,353.5625 Q79.4844,353.5625 79.2188,353.1563 Q79.0938,352.9688 79.0938,352.2969 L77.6094,352.2969 Z " fill="#000000"/><text fill="#000000" font-family="sans-serif" font-size="14" lengthAdjust="spacing" textLength="67" x="99.25" y="357.2285">Repartidor</text><line style="stroke:#181818;stroke-width:0.5;" x1="8" x2="225" y1="367.5" y2="367.5"/><ellipse cx="18" cy="381.8047" fill="#000000" rx="3" ry="3" style="stroke:#000000;stroke-width:1.0;"/><text fill="#000000" font-family="sans-serif" font-size="14" lengthAdjust="spacing" textLength="193" x="27" y="386.0332">id: INTEGER(11) &#171;subrogada&#187;</text><line style="stroke:#181818;stroke-width:1.0;" x1="8" x2="225" y1="393.1094" y2="393.1094"/><ellipse cx="18" cy="407.4141" fill="#000000" rx="3" ry="3" style="stroke:#000000;stroke-width:1.0;"/><text fill="#000000" font-family="sans-serif" font-size="14" lengthAdjust="spacing" textLength="181" x="27" y="411.6426">zona_id: INTEGER(11) &#171;FK&#187;</text><ellipse cx="18" cy="425.0234" fill="#000000" rx="3" ry="3" style="stroke:#000000;stroke-width:1.0;"/><text fill="#000000" font-family="sans-serif" font-size="14" lengthAdjust="spacing" textLength="156" x="27" y="429.252">nombre: VARCHAR(255)</text><ellipse cx="18" cy="442.6328" fill="#000000" rx="3" ry="3" style="stroke:#000000;stroke-width:1.0;"/><text fill="#000000" font-family="sans-serif" font-size="14" lengthAdjust="spacing" textLength="193" x="27" y="446.8613">entrega_en_curso: TINYINT(1)</text></g><!--class Zona--><g id="elem_Zona"><rect codeLine="116" fill="#F1F1F1" height="83.2188" id="Zona" rx="2.5" ry="2.5" style="stroke:#181818;stroke-width:0.5;" width="219" x="148" y="850.5"/><ellipse cx="237.25" cy="866.5" fill="#ADD1B2" rx="11" ry="11" style="stroke:#181818;stroke-width:1.0;"/><path d="M236.1094,867.2969 L236.1094,869.7969 L240.4375,869.7969 L240.4375,868.875 Q240.4375,868.2656 240.6719,868 Q240.9219,867.7344 241.2969,867.7344 Q241.6719,867.7344 241.9063,868 Q242.1406,868.2656 242.1406,868.875 L242.1406,871.5 L234.1406,871.5 Q233.5156,871.5 233.25,871.2656 Q233,871.0313 233,870.6406 Q233,870.2656 233.2656,870.0313 Q233.5313,869.7969 234.1406,869.7969 L234.4063,869.7969 L234.4063,863.1406 L234.1406,863.1406 Q233.5156,863.1406 233.25,862.9063 Q233,862.6719 233,862.2813 Q233,861.9063 233.25,861.6719 Q233.5156,861.4375 234.1406,861.4375 L241.7656,861.4375 L241.7656,864.0313 Q241.7656,864.6406 241.5313,864.9063 Q241.3125,865.1563 240.9219,865.1563 Q240.5469,865.1563 240.3125,864.9063 Q240.0781,864.6406 240.0781,864.0313 L240.0781,863.1406 L236.1094,863.1406 L236.1094,865.5938 L237.5938,865.5938 Q237.5938,864.9375 237.7188,864.75 Q237.9844,864.3438 238.4531,864.3438 Q238.8281,864.3438 239.0625,864.6094 Q239.2969,864.8594 239.2969,865.4688 L239.2969,867.4375 Q239.2969,867.9844 239.1719,868.1719 Q238.9063,868.5625 238.4531,868.5625 Q237.9844,868.5625 237.7188,868.1563 Q237.5938,867.9688 237.5938,867.2969 L236.1094,867.2969 Z " fill="#000000"/><text fill="#000000" font-family="sans-serif" font-size="14" lengthAdjust="spacing" textLength="32" x="257.75" y="872.2285">Zona</text><line style="stroke:#181818;stroke-width:0.5;" x1="149" x2="366" y1="882.5" y2="882.5"/><ellipse cx="159" cy="896.8047" fill="#000000" rx="3" ry="3" style="stroke:#000000;stroke-width:1.0;"/><text fill="#000000" font-family="sans-serif" font-size="14" lengthAdjust="spacing" textLength="193" x="168" y="901.0332">id: INTEGER(11) &#171;subrogada&#187;</text><line style="stroke:#181818;stroke-width:1.0;" x1="149" x2="366" y1="908.1094" y2="908.1094"/><ellipse cx="159" cy="922.4141" fill="#000000" rx="3" ry="3" style="stroke:#000000;stroke-width:1.0;"/><text fill="#000000" font-family="sans-serif" font-size="14" lengthAdjust="spacing" textLength="156" x="168" y="926.6426">nombre: VARCHAR(255)</text></g><!--link Pedido to Cliente--><g id="link_Pedido_Cliente"><path codeLine="122" d="M743.225,547.7076 C758.215,568.1176 757.8775,567.66 771.7375,586.55 " fill="none" id="Pedido-Cliente" style="stroke:#181818;stroke-width:1.0;"/><line style="stroke:#181818;stroke-width:1.0;" x1="737.3056" x2="727.7341" y1="539.6478" y2="536.7517"/><line style="stroke:#181818;stroke-width:1.0;" x1="737.3056" x2="737.4059" y1="539.6478" y2="529.6483"/><line style="stroke:#181818;stroke-width:1.0;" x1="737.3056" x2="732.57" y1="539.6478" y2="533.2"/><ellipse cx="740.8572" cy="544.4837" fill="none" rx="4" ry="4" style="stroke:#181818;stroke-width:1.0;"/><line style="stroke:#181818;stroke-width:1.0;" x1="777.3288" x2="770.8787" y1="587.4087" y2="592.1412"/><line style="stroke:#181818;stroke-width:1.0;" x1="775.5541" x2="769.104" y1="584.9899" y2="589.7225"/><line style="stroke:#181818;stroke-width:1.0;" x1="771.7375" x2="776.47" y1="586.55" y2="593"/></g><!--link Pedido to Restaurante--><g id="link_Pedido_Restaurante"><path codeLine="123" d="M529.1878,548.1518 C506.4178,582.1218 497.9537,594.7544 480.1337,621.3444 " fill="none" id="Pedido-Restaurante" style="stroke:#181818;stroke-width:1.0;"/><line style="stroke:#181818;stroke-width:1.0;" x1="534.7557" x2="534.2261" y1="539.8452" y2="529.8593"/><line style="stroke:#181818;stroke-width:1.0;" x1="534.7557" x2="544.1939" y1="539.8452" y2="536.5407"/><line style="stroke:#181818;stroke-width:1.0;" x1="534.7557" x2="539.21" y1="539.8452" y2="533.2"/><ellipse cx="531.415" cy="544.8292" fill="none" rx="4" ry="4" style="stroke:#181818;stroke-width:1.0;"/><line style="stroke:#181818;stroke-width:1.0;" x1="481.2297" x2="474.5841" y1="626.8941" y2="622.4403"/><line style="stroke:#181818;stroke-width:1.0;" x1="482.8998" x2="476.2542" y1="624.402" y2="619.9482"/><line style="stroke:#181818;stroke-width:1.0;" x1="480.1337" x2="475.68" y1="621.3444" y2="627.99"/></g><!--link Pedido to MedioDePago--><g id="link_Pedido_MedioDePago"><path codeLine="124" d="M786.9275,481.2322 C825.2675,501.5922 851.22,514.55 890.5,533 C954,562.82 974.55,560.08 1036.5,593 C1055.79,603.25 1069.1707,611.2517 1087.4807,623.3817 " fill="none" id="Pedido-MedioDePago" style="stroke:#181818;stroke-width:1.0;"/><line style="stroke:#181818;stroke-width:1.0;" x1="778.0955" x2="768.2159" y1="476.5421" y2="478.0892"/><line style="stroke:#181818;stroke-width:1.0;" x1="778.0955" x2="773.8441" y1="476.5421" y2="467.4908"/><line style="stroke:#181818;stroke-width:1.0;" x1="778.0955" x2="771.03" y1="476.5421" y2="472.79"/><ellipse cx="783.3947" cy="479.3561" fill="none" rx="4" ry="4" style="stroke:#181818;stroke-width:1.0;"/><line style="stroke:#181818;stroke-width:1.0;" x1="1093.0245" x2="1088.6062" y1="622.2562" y2="628.9255"/><line style="stroke:#181818;stroke-width:1.0;" x1="1090.5235" x2="1086.1053" y1="620.5994" y2="627.2687"/><line style="stroke:#181818;stroke-width:1.0;" x1="1087.4807" x2="1094.15" y1="623.3817" y2="627.8"/></g><!--link Pedido to Direccion--><g id="link_Pedido_Direccion"><path codeLine="125" d="M623.3279,551.1753 C618.3679,645.8153 613.3495,741.401 609.4495,815.681 " fill="none" id="Pedido-Direccion" style="stroke:#181818;stroke-width:1.0;"/><line style="stroke:#181818;stroke-width:1.0;" x1="623.8513" x2="618.2782" y1="541.189" y2="532.886"/><line style="stroke:#181818;stroke-width:1.0;" x1="623.8513" x2="630.2618" y1="541.189" y2="533.514"/><line style="stroke:#181818;stroke-width:1.0;" x1="623.8513" x2="624.27" y1="541.189" y2="533.2"/><ellipse cx="623.5373" cy="547.1808" fill="none" rx="4" ry="4" style="stroke:#181818;stroke-width:1.0;"/><line style="stroke:#181818;stroke-width:1.0;" x1="613.2342" x2="605.2452" y1="819.8852" y2="819.4658"/><line style="stroke:#181818;stroke-width:1.0;" x1="613.3915" x2="605.4025" y1="816.8894" y2="816.4699"/><line style="stroke:#181818;stroke-width:1.0;" x1="609.4495" x2="609.03" y1="815.681" y2="823.67"/></g><!--link Producto_Pedido to Pedido--><g id="link_Producto_Pedido_Pedido"><path codeLine="127" d="M894.7281,191.9234 C854.1881,222.9634 820.4516,248.8061 777.6716,281.5661 " fill="none" id="Producto_Pedido-Pedido" style="stroke:#181818;stroke-width:1.0;"/><line style="stroke:#181818;stroke-width:1.0;" x1="894.7281" x2="897.4324" y1="191.9234" y2="182.2961"/><line style="stroke:#181818;stroke-width:1.0;" x1="894.7281" x2="904.7276" y1="191.9234" y2="191.8239"/><line style="stroke:#181818;stroke-width:1.0;" x1="894.7281" x2="901.08" y1="191.9234" y2="187.06"/><line style="stroke:#181818;stroke-width:1.0;" x1="890.7084" x2="895.5718" y1="189.9633" y2="196.3153"/><line style="stroke:#181818;stroke-width:1.0;" x1="776.9277" x2="772.0638" y1="287.1738" y2="280.8223"/><line style="stroke:#181818;stroke-width:1.0;" x1="779.3096" x2="774.4457" y1="285.3499" y2="278.9983"/><line style="stroke:#181818;stroke-width:1.0;" x1="777.6716" x2="771.32" y1="281.5661" y2="286.43"/></g><!--link Producto_Pedido to Producto--><g id="link_Producto_Pedido_Producto"><path codeLine="128" d="M1128.2715,191.924 C1175.7115,228.254 1218.5389,261.0454 1266.8189,298.0254 " fill="none" id="Producto_Pedido-Producto" style="stroke:#181818;stroke-width:1.0;"/><line style="stroke:#181818;stroke-width:1.0;" x1="1128.2715" x2="1118.272" y1="191.924" y2="191.8236"/><line style="stroke:#181818;stroke-width:1.0;" x1="1128.2715" x2="1125.568" y1="191.924" y2="182.2964"/><line style="stroke:#181818;stroke-width:1.0;" x1="1128.2715" x2="1121.92" y1="191.924" y2="187.06"/><line style="stroke:#181818;stroke-width:1.0;" x1="1127.4273" x2="1132.2914" y1="196.3158" y2="189.9643"/><line style="stroke:#181818;stroke-width:1.0;" x1="1272.4268" x2="1267.5622" y1="297.2822" y2="303.6332"/><line style="stroke:#181818;stroke-width:1.0;" x1="1270.0451" x2="1265.1805" y1="295.458" y2="301.809"/><line style="stroke:#181818;stroke-width:1.0;" x1="1266.8189" x2="1273.17" y1="298.0254" y2="302.89"/></g><!--link MedioDePago to Tipo--><g id="link_MedioDePago_Tipo"><path codeLine="130" d="M1163.5,737.09 C1163.5,773.96 1163.5,807.67 1163.5,842.24 " fill="none" id="MedioDePago-Tipo" style="stroke:#181818;stroke-width:1.0;"/><line style="stroke:#181818;stroke-width:1.0;" x1="1163.5" x2="1157.5" y1="737.09" y2="729.09"/><line style="stroke:#181818;stroke-width:1.0;" x1="1163.5" x2="1169.5" y1="737.09" y2="729.09"/><line style="stroke:#181818;stroke-width:1.0;" x1="1163.5" x2="1163.5" y1="737.09" y2="729.09"/><line style="stroke:#181818;stroke-width:1.0;" x1="1159.5" x2="1167.5" y1="739.09" y2="739.09"/><line style="stroke:#181818;stroke-width:1.0;" x1="1167.5" x2="1159.5" y1="846.24" y2="846.24"/><line style="stroke:#181818;stroke-width:1.0;" x1="1167.5" x2="1159.5" y1="843.24" y2="843.24"/><line style="stroke:#181818;stroke-width:1.0;" x1="1163.5" x2="1163.5" y1="842.24" y2="850.24"/></g><!--link Producto to Categoria--><g id="link_Producto_Categoria"><path codeLine="132" d="M1401.7738,506.9339 C1406.4038,557.1139 1409.4753,590.4938 1413.0253,628.9838 " fill="none" id="Producto-Categoria" style="stroke:#181818;stroke-width:1.0;"/><line style="stroke:#181818;stroke-width:1.0;" x1="1400.855" x2="1394.1454" y1="496.9762" y2="489.5613"/><line style="stroke:#181818;stroke-width:1.0;" x1="1400.855" x2="1406.0946" y1="496.9762" y2="488.4587"/><line style="stroke:#181818;stroke-width:1.0;" x1="1400.855" x2="1400.12" y1="496.9762" y2="489.01"/><ellipse cx="1401.4063" cy="502.9508" fill="none" rx="4" ry="4" style="stroke:#181818;stroke-width:1.0;"/><line style="stroke:#181818;stroke-width:1.0;" x1="1417.3757" x2="1409.4095" y1="632.5995" y2="633.3343"/><line style="stroke:#181818;stroke-width:1.0;" x1="1417.1002" x2="1409.134" y1="629.6122" y2="630.347"/><line style="stroke:#181818;stroke-width:1.0;" x1="1413.0253" x2="1413.76" y1="628.9838" y2="636.95"/></g><!--link Producto to Producto--><g id="link_Producto_Producto"><path codeLine="133" d="M1517.1538,347.0355 C1537.7738,353.6855 1544.5,367.88 1544.5,394.5 C1544.5,421.12 1537.7738,435.3145 1517.1538,441.9645 " fill="none" id="Producto-Producto" style="stroke:#181818;stroke-width:1.0;"/><line style="stroke:#181818;stroke-width:1.0;" x1="1512.1192" x2="1514.5747" y1="349.6147" y2="342.0008"/><line style="stroke:#181818;stroke-width:1.0;" x1="1514.9744" x2="1517.4299" y1="350.5355" y2="342.9216"/><line style="stroke:#181818;stroke-width:1.0;" x1="1517.1538" x2="1509.54" y1="347.0355" y2="344.58"/><line style="stroke:#181818;stroke-width:1.0;" x1="1517.1538" x2="1511.3816" y1="441.9645" y2="450.1304"/><line style="stroke:#181818;stroke-width:1.0;" x1="1517.1538" x2="1507.6984" y1="441.9645" y2="438.7096"/><line style="stroke:#181818;stroke-width:1.0;" x1="1517.1538" x2="1509.54" y1="441.9645" y2="444.42"/><line style="stroke:#181818;stroke-width:1.0;" x1="1520.285" x2="1517.8296" y1="445.1576" y2="437.5437"/></g><!--link Restaurante to Zona--><g id="link_Restaurante_Zona"><path codeLine="135" d="M393.8621,735.1107 C361.6021,771.9807 328.6572,809.6486 298.4172,844.2186 " fill="none" id="Restaurante-Zona" style="stroke:#181818;stroke-width:1.0;"/><line style="stroke:#181818;stroke-width:1.0;" x1="393.8621" x2="394.6145" y1="735.1107" y2="725.1391"/><line style="stroke:#181818;stroke-width:1.0;" x1="393.8621" x2="403.6455" y1="735.1107" y2="733.0409"/><line style="stroke:#181818;stroke-width:1.0;" x1="393.8621" x2="399.13" y1="735.1107" y2="729.09"/><line style="stroke:#181818;stroke-width:1.0;" x1="389.5347" x2="395.5555" y1="733.9819" y2="739.2499"/><line style="stroke:#181818;stroke-width:1.0;" x1="298.7943" x2="292.7729" y1="849.8629" y2="844.5957"/><line style="stroke:#181818;stroke-width:1.0;" x1="300.7695" x2="294.7481" y1="847.6049" y2="842.3377"/><line style="stroke:#181818;stroke-width:1.0;" x1="298.4172" x2="293.15" y1="844.2186" y2="850.24"/></g><!--link Entrega to Repartidor--><g id="link_Entrega_Repartidor"><path codeLine="137" d="M218.2342,211.8846 C192.6442,257.5746 175.36,288.4206 153.08,328.1906 " fill="none" id="Entrega-Repartidor" style="stroke:#181818;stroke-width:1.0;"/><line style="stroke:#181818;stroke-width:1.0;" x1="223.1208" x2="221.7951" y1="203.1598" y2="193.2481"/><line style="stroke:#181818;stroke-width:1.0;" x1="223.1208" x2="232.2649" y1="203.1598" y2="199.1119"/><line style="stroke:#181818;stroke-width:1.0;" x1="223.1208" x2="227.03" y1="203.1598" y2="196.18"/><ellipse cx="220.1888" cy="208.3947" fill="none" rx="4" ry="4" style="stroke:#181818;stroke-width:1.0;"/><line style="stroke:#181818;stroke-width:1.0;" x1="154.6147" x2="147.6353" y1="333.6353" y2="329.7253"/><line style="stroke:#181818;stroke-width:1.0;" x1="156.0809" x2="149.1016" y1="331.018" y2="327.108"/><line style="stroke:#181818;stroke-width:1.0;" x1="153.08" x2="149.17" y1="328.1906" y2="335.17"/></g><!--link Entrega to Pedido--><g id="link_Entrega_Pedido"><path codeLine="138" d="M406.6854,207.6461 C438.2454,233.7261 452.844,245.8029 485.724,272.9829 " fill="none" id="Entrega-Pedido" style="stroke:#181818;stroke-width:1.0;"/><line style="stroke:#181818;stroke-width:1.0;" x1="398.9769" x2="388.988" y1="201.2761" y2="200.8051"/><line style="stroke:#181818;stroke-width:1.0;" x1="398.9769" x2="396.632" y1="201.2761" y2="191.5549"/><line style="stroke:#181818;stroke-width:1.0;" x1="398.9769" x2="392.81" y1="201.2761" y2="196.18"/><ellipse cx="403.602" cy="205.0981" fill="none" rx="4" ry="4" style="stroke:#181818;stroke-width:1.0;"/><line style="stroke:#181818;stroke-width:1.0;" x1="491.3555" x2="486.2585" y1="272.4485" y2="278.6145"/><line style="stroke:#181818;stroke-width:1.0;" x1="489.0433" x2="483.9462" y1="270.537" y2="276.7031"/><line style="stroke:#181818;stroke-width:1.0;" x1="485.724" x2="491.89" y1="272.9829" y2="278.08"/></g><!--link Entrega to Direccion--><g id="link_Entrega_Direccion"><path codeLine="139" d="M271.8436,214.009 C262.4236,374.239 253.53,674.62 315.5,764 C337.58,795.84 415.7553,828.5083 488.3253,853.7883 " fill="none" id="Entrega-Direccion" style="stroke:#181818;stroke-width:1.0;"/><line style="stroke:#181818;stroke-width:1.0;" x1="272.4305" x2="266.9103" y1="204.0262" y2="195.6879"/><line style="stroke:#181818;stroke-width:1.0;" x1="272.4305" x2="278.8897" y1="204.0262" y2="196.3921"/><line style="stroke:#181818;stroke-width:1.0;" x1="272.4305" x2="272.9" y1="204.0262" y2="196.04"/><ellipse cx="272.0784" cy="210.0159" fill="none" rx="4" ry="4" style="stroke:#181818;stroke-width:1.0;"/><line style="stroke:#181818;stroke-width:1.0;" x1="493.4185" x2="490.7868" y1="851.3268" y2="858.8815"/><line style="stroke:#181818;stroke-width:1.0;" x1="490.5855" x2="487.9537" y1="850.3399" y2="857.8946"/><line style="stroke:#181818;stroke-width:1.0;" x1="488.3253" x2="495.88" y1="853.7883" y2="856.42"/></g><!--link Repartidor to Zona--><g id="link_Repartidor_Zona"><path codeLine="141" d="M138.017,471.1126 C166.957,572.8026 218.8303,755.1055 243.7703,842.7455 " fill="none" id="Repartidor-Zona" style="stroke:#181818;stroke-width:1.0;"/><line style="stroke:#181818;stroke-width:1.0;" x1="135.2798" x2="127.3191" y1="461.4945" y2="455.4423"/><line style="stroke:#181818;stroke-width:1.0;" x1="135.2798" x2="138.8609" y1="461.4945" y2="452.1577"/><line style="stroke:#181818;stroke-width:1.0;" x1="135.2798" x2="133.09" y1="461.4945" y2="453.8"/><ellipse cx="136.9221" cy="467.2653" fill="none" rx="4" ry="4" style="stroke:#181818;stroke-width:1.0;"/><line style="stroke:#181818;stroke-width:1.0;" x1="248.7124" x2="241.0179" y1="845.4979" y2="847.6876"/><line style="stroke:#181818;stroke-width:1.0;" x1="247.8913" x2="240.1968" y1="842.6125" y2="844.8021"/><line style="stroke:#181818;stroke-width:1.0;" x1="243.7703" x2="245.96" y1="842.7455" y2="850.44"/></g><!--link Cliente to Direccion--><g id="link_Cliente_Direccion"><path codeLine="143" d="M739.4869,769.3775 C717.5569,789.2875 706.3244,799.484 685.3644,818.504 " fill="none" id="Cliente-Direccion" style="stroke:#181818;stroke-width:1.0;"/><line style="stroke:#181818;stroke-width:1.0;" x1="739.4869" x2="741.3769" y1="769.3775" y2="759.5577"/><line style="stroke:#181818;stroke-width:1.0;" x1="739.4869" x2="749.4431" y1="769.3775" y2="768.4423"/><line style="stroke:#181818;stroke-width:1.0;" x1="739.4869" x2="745.41" y1="769.3775" y2="764"/><line style="stroke:#181818;stroke-width:1.0;" x1="735.3174" x2="740.6949" y1="767.7603" y2="773.6834"/><line style="stroke:#181818;stroke-width:1.0;" x1="685.0902" x2="679.7142" y1="824.1542" y2="818.2298"/><line style="stroke:#181818;stroke-width:1.0;" x1="687.3118" x2="681.9358" y1="822.1382" y2="816.2138"/><line style="stroke:#181818;stroke-width:1.0;" x1="685.3644" x2="679.44" y1="818.504" y2="823.88"/></g><!--link MedioDePago_Cliente to MedioDePago--><g id="link_MedioDePago_Cliente_MedioDePago"><path codeLine="145" d="M1071.0135,452.6685 C1092.1535,504.0585 1118.856,568.9817 1139.996,620.3617 " fill="none" id="MedioDePago_Cliente-MedioDePago" style="stroke:#181818;stroke-width:1.0;"/><line style="stroke:#181818;stroke-width:1.0;" x1="1071.0135" x2="1062.4211" y1="452.6685" y2="447.5526"/><line style="stroke:#181818;stroke-width:1.0;" x1="1071.0135" x2="1073.5189" y1="452.6685" y2="442.9874"/><line style="stroke:#181818;stroke-width:1.0;" x1="1071.0135" x2="1067.97" y1="452.6685" y2="445.27"/><line style="stroke:#181818;stroke-width:1.0;" x1="1068.0751" x2="1075.4736" y1="456.0398" y2="452.9964"/><line style="stroke:#181818;stroke-width:1.0;" x1="1145.2171" x2="1137.8189" y1="622.5389" y2="625.5829"/><line style="stroke:#181818;stroke-width:1.0;" x1="1144.0757" x2="1136.6774" y1="619.7645" y2="622.8085"/><line style="stroke:#181818;stroke-width:1.0;" x1="1139.996" x2="1143.04" y1="620.3617" y2="627.76"/></g><!--link MedioDePago_Cliente to Cliente--><g id="link_MedioDePago_Cliente_Cliente"><path codeLine="146" d="M1005.8556,451.6966 C975.6156,492.4866 941.673,538.2824 905.993,586.4324 " fill="none" id="MedioDePago_Cliente-Cliente" style="stroke:#181818;stroke-width:1.0;"/><line style="stroke:#181818;stroke-width:1.0;" x1="1005.8556" x2="1005.8001" y1="451.6966" y2="441.6967"/><line style="stroke:#181818;stroke-width:1.0;" x1="1005.8556" x2="1015.4399" y1="451.6966" y2="448.8433"/><line style="stroke:#181818;stroke-width:1.0;" x1="1005.8556" x2="1010.62" y1="451.6966" y2="445.27"/><line style="stroke:#181818;stroke-width:1.0;" x1="1001.4512" x2="1007.8778" y1="450.921" y2="455.6854"/><line style="stroke:#181818;stroke-width:1.0;" x1="906.8253" x2="900.3977" y1="592.0277" y2="587.2647"/><line style="stroke:#181818;stroke-width:1.0;" x1="908.6114" x2="902.1838" y1="589.6173" y2="584.8544"/><line style="stroke:#181818;stroke-width:1.0;" x1="905.993" x2="901.23" y1="586.4324" y2="592.86"/></g><!--SRC=[jLNVQzim47xtN-77j9273lfIIY4axXQsTYMOiUr5A9AIQDW-8Sk5hSd_ldCinR8TPqx37dNtwNv_To8pqlmENmIN7CAtu3gK_2wSFyVHnsWnkhcv2k_lysAfOKqvVNW8ncE4i4IAp0ZIXJv-Hinrg4LkQA7fIL2AFe5mGHHTGp-CIoqOav3rGrQ2RIZPWAPtuMmIH_7yAKAnqg1aXhB7BrydSHatv0Q8o5ubr485cc4sz9SW35APeoTFYRuno1MQIMgfaI9LG0mccEDt8pegDAZ5sdDT5eIZrs-JnVJJP37wS7jx5Uo2GDZwQ-05m-3EQuJQe_iBevpPNWJ37abEcsgKmp8N-fMoVJNYwBjN3AoIqhIJCceLrVP7fQlpUofxFHClsEcXkHcfeA_VKgUqjvOnVXpg98DqgKNJL1XwncPk-WPpWoP9oo1AQMAAicRkinKhcKD7o81B98J2OIs7pkzB7TUqek3Gg9fSS_pbOaMBnBoVU6MF20TMf6WFEbbdADUd09QXTI1kfexrvVWuaOigqS-BqoiEGsbJT_Y06B46BUabj3rQ7yTGRtrHio4ofMkHTR1Sv4nBrM3u42fFNVplv5WODWYsg4_5K8D_8ADdbgRs5rMRUQYlVILmGu8-qQv_RE6pBXYXJ2Yy5SrJvkdH5gnblzwUdXQ0GRO2dLQhVjzjlmKkn__O0Jo1LM0O8665BXTVF7_-WHP6ZSts4srVihvBK_QAxc0ytcxThcn9lS5hQRpjqj8ShW6wQ5titNQFg5wzMYiE0lyWMcLvjsgxX-0TtMhDjiI_USPy3bbZPHM3m0tx8MNNwBR6XjsIUkbwCsALbGUtVQrRxyUn7MrHVe5FmEppBm00]--></g></svg>